# xmcd
#
# Track frame offsets: 
#        150
#        12202
#        24273
#        36051
#        49015
#        59298
#        75424
#        90388
#        103459
#        116851
#        127453
#        140778
#        153952
#        169715
#        184187
#        200062
#        219287
#        236573
#        254061
#        272327
#        285939
#        300606
#        318172
#        330900
#        344878
#
# Disc length: 4719 seconds
#
# Revision: 0
# Processed by: cddbd v1.5.2PL0 Copyright (c) Steve Scherf et al.
# Submitted via: ExactAudioCopy v0.99pb4
#
DISCID=67126d19
DTITLE=Billy Joe Shaver - When I Get My Wings  Gypsy Boy
DYEAR=2013
DGENRE=Country
TTITLE0=Texas Uphere Tennessee
TTITLE1=The Good Lord Knows I Tried
TTITLE2=Woman Is The Wonder Of The World
TTITLE3=When I Get My Wings
TTITLE4=Ain't No God In Mexico
TTITLE5=Love You Till The Cows Come Home
TTITLE6=Ride Me Down Easy
TTITLE7=When The Word Was Thunderbird
TTITLE8=America You Are My Woman
TTITLE9=A Restless Wind
TTITLE10=Evergreen
TTITLE11=Billy B. Damned
TTITLE12=We Stayed Too Long At The Fair
TTITLE13=Honky Tonk Heroes
TTITLE14=I'm Going Crazy In 3/4 Time
TTITLE15=Gypsy Boy
TTITLE16=Chicken On The Ground
TTITLE17=Everything, Everywhere's
TTITLE18=Slow Rollin' Low
TTITLE19=Silver Wings Of Time
TTITLE20=The Believer
TTITLE21=You Asked Me To
TTITLE22=Fit To Kill And Going Out In Style [Bonus Track]
TTITLE23=Saturday Night [Bonus Track]
TTITLE24=I'm Just An Old Chunk Of Coal (But I'm Gonna Be A Diamond Som
TTITLE24=eday) [Bonus Track]
EXTD=
EXTT0=
EXTT1=
EXTT2=
EXTT3=
EXTT4=
EXTT5=
EXTT6=
EXTT7=
EXTT8=
EXTT9=
EXTT10=
EXTT11=
EXTT12=
EXTT13=
EXTT14=
EXTT15=
EXTT16=
EXTT17=
EXTT18=
EXTT19=
EXTT20=
EXTT21=
EXTT22=
EXTT23=
EXTT24=
PLAYORDER=
